
        <svg xmlns="http://www.w3.org/2000/svg" xmlns:xlink="http://www.w3.org/1999/xlink" version="1.1" width="3375" 
        height="1293.9165523952413" viewBox="0 0 3375 1293.9165523952413">
			<rect fill="#000000" width="3375" height="1293.9165523952413"/>
			<g transform="scale(18.75) translate(10, 10)">
				<defs id="SvgjsDefs1107"></defs><g id="SvgjsG1108" featureKey="symbolFeature-0" transform="matrix(0.5628253254220374,0,0,0.5628253254220374,-5.327141790999914,-0.23385377349578462)" fill="#fd0223"><polygon xmlns="http://www.w3.org/2000/svg" points="38.182,57.753 20.18,47.91 20.18,42.455 38.182,32.652 38.182,39.074 25.625,45.113 38.182,51.379 "></polygon><polygon xmlns="http://www.w3.org/2000/svg" points="39.848,62.08 46.351,27.918 50.136,27.918 43.56,62.08 "></polygon><polygon xmlns="http://www.w3.org/2000/svg" points="51.8,57.78 51.8,51.4 64.372,45.181 51.8,39.028 51.8,32.696 69.82,42.5 69.82,47.91 "></polygon><path xmlns="http://www.w3.org/2000/svg" d="M44.999,86.031L9.465,65.517V24.484L44.999,3.969l35.536,20.516v41.029L44.999,86.031L44.999,86.031z M13.07,63.434  l31.929,18.434L76.93,63.434V26.566L44.999,8.131L13.07,26.565V63.434L13.07,63.434z"></path></g><g id="SvgjsG1109" featureKey="nameFeature-0" transform="matrix(1.7088173735328867,0,0,1.7088173735328867,58.427888293391135,-19.753929555088476)" fill="#ffffff"><path d="M4.88 24.880000000000003 l0 -3.24 c0 -1.04 -0.12 -6.72 -0.2 -7.32 c-0.12 -0.96 -0.64 -1.12 -1.32 -1.12 l-2 0 c-0.2 0 -0.32 -0.04 -0.32 -0.28 l0 -1.16 c0 -0.16 0.12 -0.2 0.28 -0.2 c0.52 0 2.28 0.12 6.28 0.12 c1.04 0 5.04 -0.12 5.96 -0.12 c5.64 0 9.88 0.6 13.56 3.64 c2.64 2.2 4.48 5.52 4.48 10.16 c0 4.6 -1.32 7.64 -3.96 10.52 c-3.84 4.24 -10.52 4.24 -13.24 4.24 c-0.64 0 -5.36 -0.12 -7.56 -0.12 c-3.48 0 -5.08 0.12 -5.64 0.12 c-0.2 0 -0.28 -0.08 -0.28 -0.36 l0 -1.04 c0 -0.16 0.12 -0.24 0.32 -0.24 l2.08 0 c0.76 0 1.2 -0.32 1.28 -0.88 c0.12 -0.64 0.28 -6 0.28 -9.76 l0 -1.12 l-3.32 0 c-0.12 0 -0.16 -0.04 -0.16 -0.32 l0 -1.28 c0 -0.2 0.08 -0.24 0.24 -0.24 l3.24 0 z M10.88 22.68 l0 2.2 l5.84 0 c0.16 0 0.24 0.04 0.24 0.28 l0 1.36 c0 0.16 -0.12 0.2 -0.32 0.2 l-5.76 0 l0 0.88 c0 0.64 0.04 5.24 0.08 7.72 c0 0.8 0.16 1.44 0.64 2.24 c0.52 0.72 2.08 0.92 3.24 0.92 c2.72 0 5.32 -1.24 7.48 -3.92 c1.64 -2.08 2.84 -5.4 2.84 -9.12 c0 -3.28 -1.36 -6.64 -3.24 -8.72 c-2.12 -2.32 -5.24 -3.64 -7.96 -3.64 c-1.12 0 -1.72 0.04 -2.24 0.28 c-0.6 0.28 -0.76 0.76 -0.8 1.76 c-0.04 1.68 -0.04 6.92 -0.04 7.56 z M38.6 27.32 l0 -4.72 c0 -1.48 -0.08 -6.36 -0.12 -7 c-0.12 -2.32 -0.76 -2.4 -2.08 -2.4 l-1.28 0 c-0.28 0 -0.28 -0.04 -0.28 -0.36 l0 -0.92 c0 -0.24 0.04 -0.36 0.32 -0.36 c0.52 0 2.44 0.12 6.24 0.12 c1.28 0 3.68 -0.12 6.4 -0.12 c2.88 0 5.44 0.28 6.84 1.08 c2.28 1.24 3.08 3.08 3.08 5.44 c0 2.64 -1.6 5.2 -5.84 6.6 l0 0.08 c4.96 1.28 7.56 3.68 7.56 7.92 c0 2.16 -1.2 5.12 -3.12 6.08 c-1.64 0.84 -4.44 1.48 -9.4 1.48 c-0.36 0 -1.4 -0.08 -2.52 -0.12 c-1.16 -0.08 -2.4 -0.12 -3.16 -0.12 c-2 0 -3.32 0.04 -4.2 0.04 c-0.84 0.04 -1.28 0.08 -1.56 0.08 c-0.4 0 -0.44 -0.12 -0.44 -0.44 l0 -0.88 c0 -0.24 0.04 -0.32 0.4 -0.32 l1.4 0 c1.2 0 1.4 -0.48 1.56 -1.68 c0.12 -0.92 0.2 -6.2 0.2 -9.48 z M44.44 21.2 l0 3.04 c1.64 0.16 4.2 -0.08 5.36 -1.12 c1.32 -1.16 1.92 -2.96 1.92 -4.72 c0 -1.52 -0.48 -3.12 -1.64 -4.04 c-1.36 -1.08 -3.32 -1.44 -3.76 -1.44 c-0.84 0 -1.72 0.04 -1.76 0.68 c-0.08 0.8 -0.12 4.28 -0.12 7.6 z M44.44 25.6 l0 7.92 c0 3.8 0.88 5.36 3 5.36 c2.84 0 5.52 -1.4 5.52 -6.4 c0 -3.24 -1.44 -5.36 -3.6 -6.2 c-2 -0.76 -3.92 -0.68 -4.92 -0.68 z"></path></g>
			</g>
		</svg>
	